<mxfile host="app.diagrams.net" agent="Mozilla/5.0 (Windows NT 10.0; Win64; x64) AppleWebKit/537.36 (KHTML, like Gecko) Chrome/129.0.0.0 Safari/537.36" version="24.7.17">
  <diagram id="C5RBs43oDa-KdzZeNtuy" name="Page-1">
    <mxGraphModel dx="2509" dy="1249" grid="0" gridSize="10" guides="0" tooltips="1" connect="1" arrows="1" fold="1" page="0" pageScale="1" pageWidth="827" pageHeight="1169" math="0" shadow="0">
      <root>
        <mxCell id="WIyWlLk6GJQsqaUBKTNV-0" />
        <mxCell id="WIyWlLk6GJQsqaUBKTNV-1" parent="WIyWlLk6GJQsqaUBKTNV-0" />
        <mxCell id="5vN8rXRsK1bDS0_Dt-l9-66" value="" style="rounded=1;whiteSpace=wrap;html=1;fillColor=none;dashed=1;dashPattern=12 12;" vertex="1" parent="WIyWlLk6GJQsqaUBKTNV-1">
          <mxGeometry x="490" y="193" width="689" height="400" as="geometry" />
        </mxCell>
        <mxCell id="5vN8rXRsK1bDS0_Dt-l9-14" value="" style="rounded=1;whiteSpace=wrap;html=1;fillColor=none;dashed=1;dashPattern=12 12;" vertex="1" parent="WIyWlLk6GJQsqaUBKTNV-1">
          <mxGeometry x="192" y="636" width="543" height="219" as="geometry" />
        </mxCell>
        <mxCell id="5vN8rXRsK1bDS0_Dt-l9-3" value="" style="rounded=1;whiteSpace=wrap;html=1;fillColor=none;dashed=1;dashPattern=12 12;" vertex="1" parent="WIyWlLk6GJQsqaUBKTNV-1">
          <mxGeometry x="-161" y="193" width="543" height="400" as="geometry" />
        </mxCell>
        <mxCell id="vrMutl9Br54j6cZ6q9lH-99" value="" style="edgeStyle=orthogonalEdgeStyle;rounded=0;orthogonalLoop=1;jettySize=auto;html=1;fontStyle=1" parent="WIyWlLk6GJQsqaUBKTNV-1" source="vrMutl9Br54j6cZ6q9lH-91" target="vrMutl9Br54j6cZ6q9lH-92" edge="1">
          <mxGeometry relative="1" as="geometry" />
        </mxCell>
        <mxCell id="vrMutl9Br54j6cZ6q9lH-91" value="开始" style="rounded=1;whiteSpace=wrap;html=1;fontStyle=1" parent="WIyWlLk6GJQsqaUBKTNV-1" vertex="1">
          <mxGeometry x="-137" y="241" width="120" height="60" as="geometry" />
        </mxCell>
        <mxCell id="vrMutl9Br54j6cZ6q9lH-100" value="" style="edgeStyle=orthogonalEdgeStyle;rounded=0;orthogonalLoop=1;jettySize=auto;html=1;fontStyle=1" parent="WIyWlLk6GJQsqaUBKTNV-1" source="vrMutl9Br54j6cZ6q9lH-92" target="vrMutl9Br54j6cZ6q9lH-93" edge="1">
          <mxGeometry relative="1" as="geometry">
            <Array as="points">
              <mxPoint x="310" y="270" />
              <mxPoint x="310" y="335" />
            </Array>
          </mxGeometry>
        </mxCell>
        <mxCell id="5vN8rXRsK1bDS0_Dt-l9-29" value="" style="edgeStyle=orthogonalEdgeStyle;rounded=0;orthogonalLoop=1;jettySize=auto;html=1;" edge="1" parent="WIyWlLk6GJQsqaUBKTNV-1" source="vrMutl9Br54j6cZ6q9lH-92" target="5vN8rXRsK1bDS0_Dt-l9-27">
          <mxGeometry relative="1" as="geometry" />
        </mxCell>
        <mxCell id="vrMutl9Br54j6cZ6q9lH-92" value="机顶盒开机，数据采集app启动，，携带认证信息向平台端登录" style="rounded=0;whiteSpace=wrap;html=1;fontStyle=1" parent="WIyWlLk6GJQsqaUBKTNV-1" vertex="1">
          <mxGeometry x="17" y="240" width="120" height="60" as="geometry" />
        </mxCell>
        <mxCell id="vrMutl9Br54j6cZ6q9lH-102" value="" style="edgeStyle=orthogonalEdgeStyle;rounded=0;orthogonalLoop=1;jettySize=auto;html=1;fontStyle=1" parent="WIyWlLk6GJQsqaUBKTNV-1" source="vrMutl9Br54j6cZ6q9lH-93" target="vrMutl9Br54j6cZ6q9lH-94" edge="1">
          <mxGeometry relative="1" as="geometry" />
        </mxCell>
        <mxCell id="vrMutl9Br54j6cZ6q9lH-105" value="否" style="edgeLabel;html=1;align=center;verticalAlign=middle;resizable=0;points=[];fontStyle=1" parent="vrMutl9Br54j6cZ6q9lH-102" vertex="1" connectable="0">
          <mxGeometry x="-0.0476" y="-2" relative="1" as="geometry">
            <mxPoint as="offset" />
          </mxGeometry>
        </mxCell>
        <mxCell id="vrMutl9Br54j6cZ6q9lH-103" value="" style="edgeStyle=orthogonalEdgeStyle;rounded=0;orthogonalLoop=1;jettySize=auto;html=1;fontStyle=1;exitX=0.5;exitY=1;exitDx=0;exitDy=0;" parent="WIyWlLk6GJQsqaUBKTNV-1" source="vrMutl9Br54j6cZ6q9lH-93" target="vrMutl9Br54j6cZ6q9lH-95" edge="1">
          <mxGeometry relative="1" as="geometry" />
        </mxCell>
        <mxCell id="vrMutl9Br54j6cZ6q9lH-104" value="是" style="edgeLabel;html=1;align=center;verticalAlign=middle;resizable=0;points=[];fontStyle=1" parent="vrMutl9Br54j6cZ6q9lH-103" vertex="1" connectable="0">
          <mxGeometry x="-0.0768" relative="1" as="geometry">
            <mxPoint as="offset" />
          </mxGeometry>
        </mxCell>
        <mxCell id="vrMutl9Br54j6cZ6q9lH-93" value="平台判断&lt;div&gt;是否合法&lt;div&gt;被授权设备&lt;/div&gt;&lt;/div&gt;" style="rhombus;whiteSpace=wrap;html=1;fontStyle=1" parent="WIyWlLk6GJQsqaUBKTNV-1" vertex="1">
          <mxGeometry x="524" y="295" width="124" height="80" as="geometry" />
        </mxCell>
        <mxCell id="vrMutl9Br54j6cZ6q9lH-94" value="结束" style="rounded=1;whiteSpace=wrap;html=1;fontStyle=1" parent="WIyWlLk6GJQsqaUBKTNV-1" vertex="1">
          <mxGeometry x="688" y="305" width="120" height="60" as="geometry" />
        </mxCell>
        <mxCell id="5vN8rXRsK1bDS0_Dt-l9-33" value="" style="edgeStyle=orthogonalEdgeStyle;rounded=0;orthogonalLoop=1;jettySize=auto;html=1;" edge="1" parent="WIyWlLk6GJQsqaUBKTNV-1" source="vrMutl9Br54j6cZ6q9lH-95" target="5vN8rXRsK1bDS0_Dt-l9-32">
          <mxGeometry relative="1" as="geometry" />
        </mxCell>
        <mxCell id="vrMutl9Br54j6cZ6q9lH-95" value="新建/更新设备与用户关联关系并保存&lt;div&gt;到数据库&lt;/div&gt;" style="rounded=0;whiteSpace=wrap;html=1;fontStyle=1" parent="WIyWlLk6GJQsqaUBKTNV-1" vertex="1">
          <mxGeometry x="525" y="404" width="120" height="60" as="geometry" />
        </mxCell>
        <mxCell id="5vN8rXRsK1bDS0_Dt-l9-49" value="" style="edgeStyle=orthogonalEdgeStyle;rounded=0;orthogonalLoop=1;jettySize=auto;html=1;" edge="1" parent="WIyWlLk6GJQsqaUBKTNV-1" source="vrMutl9Br54j6cZ6q9lH-107" target="5vN8rXRsK1bDS0_Dt-l9-48">
          <mxGeometry relative="1" as="geometry" />
        </mxCell>
        <mxCell id="vrMutl9Br54j6cZ6q9lH-107" value="保存广告并将&lt;span style=&quot;background-color: initial;&quot;&gt;广告&lt;/span&gt;&lt;div&gt;&lt;span style=&quot;background-color: initial;&quot;&gt;放入广告池&lt;/span&gt;&lt;/div&gt;" style="rounded=0;whiteSpace=wrap;html=1;fontStyle=1" parent="WIyWlLk6GJQsqaUBKTNV-1" vertex="1">
          <mxGeometry x="1005" y="214" width="120" height="60" as="geometry" />
        </mxCell>
        <mxCell id="vrMutl9Br54j6cZ6q9lH-124" value="" style="edgeStyle=orthogonalEdgeStyle;rounded=0;orthogonalLoop=1;jettySize=auto;html=1;fontStyle=1" parent="WIyWlLk6GJQsqaUBKTNV-1" source="vrMutl9Br54j6cZ6q9lH-109" edge="1">
          <mxGeometry relative="1" as="geometry">
            <mxPoint x="1310.090909090909" y="302.0028362528483" as="targetPoint" />
          </mxGeometry>
        </mxCell>
        <mxCell id="vrMutl9Br54j6cZ6q9lH-110" value="设计广告并&lt;div&gt;关联标签&lt;/div&gt;" style="shape=parallelogram;perimeter=parallelogramPerimeter;whiteSpace=wrap;html=1;fixedSize=1;fontStyle=1" parent="WIyWlLk6GJQsqaUBKTNV-1" vertex="1">
          <mxGeometry x="835" y="215" width="120" height="60" as="geometry" />
        </mxCell>
        <mxCell id="5vN8rXRsK1bDS0_Dt-l9-74" value="" style="edgeStyle=orthogonalEdgeStyle;rounded=0;orthogonalLoop=1;jettySize=auto;html=1;entryX=1;entryY=0.5;entryDx=0;entryDy=0;exitX=0.5;exitY=0;exitDx=0;exitDy=0;endArrow=none;endFill=0;startArrow=classic;startFill=1;" edge="1" parent="WIyWlLk6GJQsqaUBKTNV-1" source="5vN8rXRsK1bDS0_Dt-l9-77" target="vrMutl9Br54j6cZ6q9lH-95">
          <mxGeometry relative="1" as="geometry">
            <mxPoint x="381" y="437" as="targetPoint" />
            <Array as="points">
              <mxPoint x="659" y="671" />
              <mxPoint x="659" y="434" />
            </Array>
          </mxGeometry>
        </mxCell>
        <mxCell id="vrMutl9Br54j6cZ6q9lH-116" value="机顶盒携带设备及用户信息定时发送心跳请求给平台" style="rounded=0;whiteSpace=wrap;html=1;fontStyle=1" parent="WIyWlLk6GJQsqaUBKTNV-1" vertex="1">
          <mxGeometry x="181" y="404" width="120" height="60" as="geometry" />
        </mxCell>
        <mxCell id="5vN8rXRsK1bDS0_Dt-l9-83" value="" style="edgeStyle=orthogonalEdgeStyle;rounded=0;orthogonalLoop=1;jettySize=auto;html=1;" edge="1" parent="WIyWlLk6GJQsqaUBKTNV-1" source="vrMutl9Br54j6cZ6q9lH-120" target="5vN8rXRsK1bDS0_Dt-l9-80">
          <mxGeometry relative="1" as="geometry" />
        </mxCell>
        <mxCell id="vrMutl9Br54j6cZ6q9lH-120" value="广告压缩包保存到oss存储中" style="whiteSpace=wrap;html=1;fontStyle=1" parent="WIyWlLk6GJQsqaUBKTNV-1" vertex="1">
          <mxGeometry x="406" y="677" width="120" height="60" as="geometry" />
        </mxCell>
        <mxCell id="vrMutl9Br54j6cZ6q9lH-147" value="" style="edgeStyle=orthogonalEdgeStyle;rounded=0;orthogonalLoop=1;jettySize=auto;html=1;fontStyle=1" parent="WIyWlLk6GJQsqaUBKTNV-1" source="vrMutl9Br54j6cZ6q9lH-121" edge="1">
          <mxGeometry relative="1" as="geometry">
            <mxPoint x="1310.090909090909" y="543.0028362528483" as="targetPoint" />
          </mxGeometry>
        </mxCell>
        <mxCell id="vrMutl9Br54j6cZ6q9lH-148" value="" style="edgeStyle=orthogonalEdgeStyle;rounded=0;orthogonalLoop=1;jettySize=auto;html=1;fontStyle=1" parent="WIyWlLk6GJQsqaUBKTNV-1" source="vrMutl9Br54j6cZ6q9lH-146" edge="1">
          <mxGeometry relative="1" as="geometry">
            <mxPoint x="1310.090909090909" y="624" as="targetPoint" />
          </mxGeometry>
        </mxCell>
        <mxCell id="5vN8rXRsK1bDS0_Dt-l9-4" value="&lt;b&gt;&lt;font style=&quot;font-size: 18px;&quot;&gt;数据采集模块&lt;/font&gt;&lt;/b&gt;" style="text;strokeColor=none;align=center;fillColor=none;html=1;verticalAlign=middle;whiteSpace=wrap;rounded=0;" vertex="1" parent="WIyWlLk6GJQsqaUBKTNV-1">
          <mxGeometry x="24" y="596" width="126" height="30" as="geometry" />
        </mxCell>
        <mxCell id="5vN8rXRsK1bDS0_Dt-l9-76" value="" style="edgeStyle=orthogonalEdgeStyle;rounded=0;orthogonalLoop=1;jettySize=auto;html=1;entryX=1;entryY=0.5;entryDx=0;entryDy=0;" edge="1" parent="WIyWlLk6GJQsqaUBKTNV-1" source="5vN8rXRsK1bDS0_Dt-l9-5" target="5vN8rXRsK1bDS0_Dt-l9-9">
          <mxGeometry relative="1" as="geometry">
            <mxPoint x="160" y="705" as="targetPoint" />
            <Array as="points">
              <mxPoint x="212" y="705" />
              <mxPoint x="212" y="520" />
            </Array>
          </mxGeometry>
        </mxCell>
        <mxCell id="5vN8rXRsK1bDS0_Dt-l9-5" value="平台通过心跳响应下发命令&lt;span style=&quot;background-color: initial;&quot;&gt;及广告信息给机顶盒&lt;/span&gt;" style="rounded=0;whiteSpace=wrap;html=1;fontStyle=1" vertex="1" parent="WIyWlLk6GJQsqaUBKTNV-1">
          <mxGeometry x="240" y="675" width="120" height="60" as="geometry" />
        </mxCell>
        <mxCell id="5vN8rXRsK1bDS0_Dt-l9-23" value="" style="edgeStyle=orthogonalEdgeStyle;rounded=0;orthogonalLoop=1;jettySize=auto;html=1;exitX=1;exitY=0.5;exitDx=0;exitDy=0;" edge="1" parent="WIyWlLk6GJQsqaUBKTNV-1" source="5vN8rXRsK1bDS0_Dt-l9-28" target="vrMutl9Br54j6cZ6q9lH-116">
          <mxGeometry relative="1" as="geometry" />
        </mxCell>
        <mxCell id="5vN8rXRsK1bDS0_Dt-l9-67" value="" style="edgeStyle=orthogonalEdgeStyle;rounded=0;orthogonalLoop=1;jettySize=auto;html=1;" edge="1" parent="WIyWlLk6GJQsqaUBKTNV-1" source="5vN8rXRsK1bDS0_Dt-l9-9" target="5vN8rXRsK1bDS0_Dt-l9-28">
          <mxGeometry relative="1" as="geometry" />
        </mxCell>
        <mxCell id="5vN8rXRsK1bDS0_Dt-l9-9" value="执行平台命令与&lt;div&gt;播放广告&lt;/div&gt;" style="rounded=0;whiteSpace=wrap;html=1;fontStyle=1" vertex="1" parent="WIyWlLk6GJQsqaUBKTNV-1">
          <mxGeometry x="16" y="490" width="120" height="60" as="geometry" />
        </mxCell>
        <mxCell id="5vN8rXRsK1bDS0_Dt-l9-13" value="&lt;b&gt;&lt;font style=&quot;font-size: 18px;&quot;&gt;分析与匹配算法&lt;/font&gt;&lt;/b&gt;" style="text;strokeColor=none;align=center;fillColor=none;html=1;verticalAlign=middle;whiteSpace=wrap;rounded=0;" vertex="1" parent="WIyWlLk6GJQsqaUBKTNV-1">
          <mxGeometry x="757" y="591" width="143" height="34" as="geometry" />
        </mxCell>
        <mxCell id="5vN8rXRsK1bDS0_Dt-l9-17" value="" style="edgeStyle=orthogonalEdgeStyle;rounded=0;orthogonalLoop=1;jettySize=auto;html=1;fontStyle=1;entryX=0;entryY=0.5;entryDx=0;entryDy=0;" edge="1" parent="WIyWlLk6GJQsqaUBKTNV-1" source="vrMutl9Br54j6cZ6q9lH-110" target="vrMutl9Br54j6cZ6q9lH-107">
          <mxGeometry relative="1" as="geometry">
            <mxPoint x="658" y="251" as="sourcePoint" />
            <mxPoint x="692" y="250" as="targetPoint" />
          </mxGeometry>
        </mxCell>
        <mxCell id="5vN8rXRsK1bDS0_Dt-l9-38" value="" style="edgeStyle=orthogonalEdgeStyle;rounded=0;orthogonalLoop=1;jettySize=auto;html=1;" edge="1" parent="WIyWlLk6GJQsqaUBKTNV-1" source="5vN8rXRsK1bDS0_Dt-l9-18" target="5vN8rXRsK1bDS0_Dt-l9-36">
          <mxGeometry relative="1" as="geometry" />
        </mxCell>
        <mxCell id="5vN8rXRsK1bDS0_Dt-l9-18" value="平台创建不同&lt;div&gt;类型&lt;span style=&quot;background-color: initial;&quot;&gt;广告标签&lt;/span&gt;&lt;/div&gt;" style="shape=parallelogram;perimeter=parallelogramPerimeter;whiteSpace=wrap;html=1;fixedSize=1;fontStyle=1" vertex="1" parent="WIyWlLk6GJQsqaUBKTNV-1">
          <mxGeometry x="522" y="215" width="120" height="60" as="geometry" />
        </mxCell>
        <mxCell id="5vN8rXRsK1bDS0_Dt-l9-30" value="" style="edgeStyle=orthogonalEdgeStyle;rounded=0;orthogonalLoop=1;jettySize=auto;html=1;" edge="1" parent="WIyWlLk6GJQsqaUBKTNV-1" source="5vN8rXRsK1bDS0_Dt-l9-27" target="5vN8rXRsK1bDS0_Dt-l9-28">
          <mxGeometry relative="1" as="geometry" />
        </mxCell>
        <mxCell id="5vN8rXRsK1bDS0_Dt-l9-27" value="用户授权允许&lt;div&gt;记录信息&lt;/div&gt;" style="shape=parallelogram;perimeter=parallelogramPerimeter;whiteSpace=wrap;html=1;fixedSize=1;fontStyle=1" vertex="1" parent="WIyWlLk6GJQsqaUBKTNV-1">
          <mxGeometry x="17" y="324" width="120" height="60" as="geometry" />
        </mxCell>
        <mxCell id="5vN8rXRsK1bDS0_Dt-l9-28" value="记录浏览历史、播放节目类型、播放时长等信息" style="rounded=0;whiteSpace=wrap;html=1;fontStyle=1" vertex="1" parent="WIyWlLk6GJQsqaUBKTNV-1">
          <mxGeometry x="17" y="405" width="120" height="60" as="geometry" />
        </mxCell>
        <mxCell id="5vN8rXRsK1bDS0_Dt-l9-61" value="" style="edgeStyle=orthogonalEdgeStyle;rounded=0;orthogonalLoop=1;jettySize=auto;html=1;" edge="1" parent="WIyWlLk6GJQsqaUBKTNV-1" source="5vN8rXRsK1bDS0_Dt-l9-32" target="5vN8rXRsK1bDS0_Dt-l9-56">
          <mxGeometry relative="1" as="geometry" />
        </mxCell>
        <mxCell id="5vN8rXRsK1bDS0_Dt-l9-32" value="创建与更新用户与关联设备的行为分析记录" style="rounded=0;whiteSpace=wrap;html=1;fontStyle=1" vertex="1" parent="WIyWlLk6GJQsqaUBKTNV-1">
          <mxGeometry x="522" y="491" width="127" height="60" as="geometry" />
        </mxCell>
        <mxCell id="5vN8rXRsK1bDS0_Dt-l9-39" value="" style="edgeStyle=orthogonalEdgeStyle;rounded=0;orthogonalLoop=1;jettySize=auto;html=1;" edge="1" parent="WIyWlLk6GJQsqaUBKTNV-1" source="5vN8rXRsK1bDS0_Dt-l9-36" target="vrMutl9Br54j6cZ6q9lH-110">
          <mxGeometry relative="1" as="geometry" />
        </mxCell>
        <mxCell id="5vN8rXRsK1bDS0_Dt-l9-36" value="用户购买广&lt;div&gt;告投播套餐&lt;/div&gt;" style="rounded=0;whiteSpace=wrap;html=1;fontStyle=1" vertex="1" parent="WIyWlLk6GJQsqaUBKTNV-1">
          <mxGeometry x="679" y="216" width="120" height="60" as="geometry" />
        </mxCell>
        <mxCell id="5vN8rXRsK1bDS0_Dt-l9-43" value="" style="edgeStyle=orthogonalEdgeStyle;rounded=0;orthogonalLoop=1;jettySize=auto;html=1;" edge="1" parent="WIyWlLk6GJQsqaUBKTNV-1" source="5vN8rXRsK1bDS0_Dt-l9-40" target="5vN8rXRsK1bDS0_Dt-l9-42">
          <mxGeometry relative="1" as="geometry" />
        </mxCell>
        <mxCell id="5vN8rXRsK1bDS0_Dt-l9-44" value="否" style="edgeLabel;html=1;align=center;verticalAlign=middle;resizable=0;points=[];" vertex="1" connectable="0" parent="5vN8rXRsK1bDS0_Dt-l9-43">
          <mxGeometry x="-0.0604" y="-3" relative="1" as="geometry">
            <mxPoint as="offset" />
          </mxGeometry>
        </mxCell>
        <mxCell id="5vN8rXRsK1bDS0_Dt-l9-58" value="" style="edgeStyle=orthogonalEdgeStyle;rounded=0;orthogonalLoop=1;jettySize=auto;html=1;entryX=1;entryY=0.5;entryDx=0;entryDy=0;exitX=1;exitY=0.5;exitDx=0;exitDy=0;" edge="1" parent="WIyWlLk6GJQsqaUBKTNV-1" source="5vN8rXRsK1bDS0_Dt-l9-40" target="5vN8rXRsK1bDS0_Dt-l9-48">
          <mxGeometry relative="1" as="geometry">
            <mxPoint x="1207" y="441" as="targetPoint" />
          </mxGeometry>
        </mxCell>
        <mxCell id="5vN8rXRsK1bDS0_Dt-l9-59" value="是" style="edgeLabel;html=1;align=center;verticalAlign=middle;resizable=0;points=[];" vertex="1" connectable="0" parent="5vN8rXRsK1bDS0_Dt-l9-58">
          <mxGeometry x="0.0028" relative="1" as="geometry">
            <mxPoint as="offset" />
          </mxGeometry>
        </mxCell>
        <mxCell id="5vN8rXRsK1bDS0_Dt-l9-40" value="投播队列&lt;div&gt;是否已满&lt;/div&gt;" style="rhombus;whiteSpace=wrap;html=1;fontStyle=1" vertex="1" parent="WIyWlLk6GJQsqaUBKTNV-1">
          <mxGeometry x="1001" y="401" width="124" height="80" as="geometry" />
        </mxCell>
        <mxCell id="5vN8rXRsK1bDS0_Dt-l9-53" value="" style="edgeStyle=orthogonalEdgeStyle;rounded=0;orthogonalLoop=1;jettySize=auto;html=1;" edge="1" parent="WIyWlLk6GJQsqaUBKTNV-1" source="5vN8rXRsK1bDS0_Dt-l9-42" target="5vN8rXRsK1bDS0_Dt-l9-51">
          <mxGeometry relative="1" as="geometry">
            <mxPoint x="755" y="441" as="targetPoint" />
          </mxGeometry>
        </mxCell>
        <mxCell id="5vN8rXRsK1bDS0_Dt-l9-42" value="将广告信息放&lt;div&gt;入投播队列&lt;/div&gt;" style="rounded=0;whiteSpace=wrap;html=1;fontStyle=1" vertex="1" parent="WIyWlLk6GJQsqaUBKTNV-1">
          <mxGeometry x="835" y="411" width="120" height="60" as="geometry" />
        </mxCell>
        <mxCell id="5vN8rXRsK1bDS0_Dt-l9-50" value="" style="edgeStyle=orthogonalEdgeStyle;rounded=0;orthogonalLoop=1;jettySize=auto;html=1;" edge="1" parent="WIyWlLk6GJQsqaUBKTNV-1" source="5vN8rXRsK1bDS0_Dt-l9-48" target="5vN8rXRsK1bDS0_Dt-l9-40">
          <mxGeometry relative="1" as="geometry" />
        </mxCell>
        <mxCell id="5vN8rXRsK1bDS0_Dt-l9-48" value="根据套餐及广告优先级从广告池获取广告放入投播队列" style="rounded=0;whiteSpace=wrap;html=1;fontStyle=1" vertex="1" parent="WIyWlLk6GJQsqaUBKTNV-1">
          <mxGeometry x="1004" y="307" width="120" height="60" as="geometry" />
        </mxCell>
        <mxCell id="5vN8rXRsK1bDS0_Dt-l9-60" value="" style="edgeStyle=orthogonalEdgeStyle;rounded=0;orthogonalLoop=1;jettySize=auto;html=1;" edge="1" parent="WIyWlLk6GJQsqaUBKTNV-1" source="5vN8rXRsK1bDS0_Dt-l9-51" target="5vN8rXRsK1bDS0_Dt-l9-56">
          <mxGeometry relative="1" as="geometry" />
        </mxCell>
        <mxCell id="5vN8rXRsK1bDS0_Dt-l9-51" value="从投播队列提取广告" style="rounded=0;whiteSpace=wrap;html=1;fontStyle=1" vertex="1" parent="WIyWlLk6GJQsqaUBKTNV-1">
          <mxGeometry x="682" y="411" width="120" height="60" as="geometry" />
        </mxCell>
        <mxCell id="5vN8rXRsK1bDS0_Dt-l9-63" value="" style="edgeStyle=orthogonalEdgeStyle;rounded=0;orthogonalLoop=1;jettySize=auto;html=1;" edge="1" parent="WIyWlLk6GJQsqaUBKTNV-1" source="5vN8rXRsK1bDS0_Dt-l9-56" target="5vN8rXRsK1bDS0_Dt-l9-62">
          <mxGeometry relative="1" as="geometry" />
        </mxCell>
        <mxCell id="5vN8rXRsK1bDS0_Dt-l9-56" value="&lt;div style=&quot;text-align: start;&quot;&gt;根据广告套餐及类型，寻找空闲设备&lt;/div&gt;" style="rounded=0;whiteSpace=wrap;html=1;fontStyle=1" vertex="1" parent="WIyWlLk6GJQsqaUBKTNV-1">
          <mxGeometry x="679" y="492" width="127" height="60" as="geometry" />
        </mxCell>
        <mxCell id="5vN8rXRsK1bDS0_Dt-l9-65" value="" style="edgeStyle=orthogonalEdgeStyle;rounded=0;orthogonalLoop=1;jettySize=auto;html=1;" edge="1" parent="WIyWlLk6GJQsqaUBKTNV-1" source="5vN8rXRsK1bDS0_Dt-l9-62" target="5vN8rXRsK1bDS0_Dt-l9-64">
          <mxGeometry relative="1" as="geometry" />
        </mxCell>
        <mxCell id="5vN8rXRsK1bDS0_Dt-l9-62" value="&lt;div style=&quot;text-align: start;&quot;&gt;按照匹配度打分，找出符合曝光度要求的设备列表&lt;/div&gt;" style="rounded=0;whiteSpace=wrap;html=1;fontStyle=1" vertex="1" parent="WIyWlLk6GJQsqaUBKTNV-1">
          <mxGeometry x="838" y="492" width="127" height="60" as="geometry" />
        </mxCell>
        <mxCell id="5vN8rXRsK1bDS0_Dt-l9-70" value="" style="edgeStyle=orthogonalEdgeStyle;rounded=0;orthogonalLoop=1;jettySize=auto;html=1;entryX=0.5;entryY=0;entryDx=0;entryDy=0;" edge="1" parent="WIyWlLk6GJQsqaUBKTNV-1" source="5vN8rXRsK1bDS0_Dt-l9-64" target="vrMutl9Br54j6cZ6q9lH-120">
          <mxGeometry relative="1" as="geometry">
            <mxPoint x="1081.5" y="623.0000000000002" as="targetPoint" />
            <Array as="points">
              <mxPoint x="1082" y="573" />
              <mxPoint x="466" y="573" />
            </Array>
          </mxGeometry>
        </mxCell>
        <mxCell id="5vN8rXRsK1bDS0_Dt-l9-85" value="" style="edgeStyle=orthogonalEdgeStyle;rounded=0;orthogonalLoop=1;jettySize=auto;html=1;entryX=1;entryY=0.5;entryDx=0;entryDy=0;" edge="1" parent="WIyWlLk6GJQsqaUBKTNV-1" source="5vN8rXRsK1bDS0_Dt-l9-64" target="5vN8rXRsK1bDS0_Dt-l9-80">
          <mxGeometry relative="1" as="geometry">
            <mxPoint x="1081.5" y="633" as="targetPoint" />
            <Array as="points">
              <mxPoint x="1082" y="799" />
            </Array>
          </mxGeometry>
        </mxCell>
        <mxCell id="5vN8rXRsK1bDS0_Dt-l9-64" value="&lt;div style=&quot;text-align: start;&quot;&gt;生成广告压缩包及&lt;span style=&quot;background-color: initial;&quot;&gt;设&lt;/span&gt;&lt;/div&gt;&lt;div style=&quot;text-align: start;&quot;&gt;&lt;span style=&quot;background-color: initial;&quot;&gt;备&lt;/span&gt;&lt;span style=&quot;background-color: initial;&quot;&gt;广告关联记录&lt;/span&gt;&lt;/div&gt;" style="rounded=0;whiteSpace=wrap;html=1;fontStyle=1" vertex="1" parent="WIyWlLk6GJQsqaUBKTNV-1">
          <mxGeometry x="1018" y="493" width="127" height="60" as="geometry" />
        </mxCell>
        <mxCell id="5vN8rXRsK1bDS0_Dt-l9-90" value="" style="edgeStyle=orthogonalEdgeStyle;rounded=0;orthogonalLoop=1;jettySize=auto;html=1;entryX=1;entryY=0.5;entryDx=0;entryDy=0;" edge="1" parent="WIyWlLk6GJQsqaUBKTNV-1" source="5vN8rXRsK1bDS0_Dt-l9-77" target="5vN8rXRsK1bDS0_Dt-l9-80">
          <mxGeometry relative="1" as="geometry">
            <mxPoint x="659" y="812" as="targetPoint" />
          </mxGeometry>
        </mxCell>
        <mxCell id="5vN8rXRsK1bDS0_Dt-l9-77" value="根据设备状态对于没有接收到广告的设备重新发送广告包" style="whiteSpace=wrap;html=1;fontStyle=1" vertex="1" parent="WIyWlLk6GJQsqaUBKTNV-1">
          <mxGeometry x="599" y="672" width="120" height="60" as="geometry" />
        </mxCell>
        <mxCell id="5vN8rXRsK1bDS0_Dt-l9-87" value="" style="edgeStyle=orthogonalEdgeStyle;rounded=0;orthogonalLoop=1;jettySize=auto;html=1;entryX=0.5;entryY=1;entryDx=0;entryDy=0;" edge="1" parent="WIyWlLk6GJQsqaUBKTNV-1" source="5vN8rXRsK1bDS0_Dt-l9-80" target="5vN8rXRsK1bDS0_Dt-l9-5">
          <mxGeometry relative="1" as="geometry">
            <mxPoint x="327" y="799" as="targetPoint" />
          </mxGeometry>
        </mxCell>
        <mxCell id="5vN8rXRsK1bDS0_Dt-l9-80" value="根据设备列表及状态发送广告包" style="whiteSpace=wrap;html=1;fontStyle=1" vertex="1" parent="WIyWlLk6GJQsqaUBKTNV-1">
          <mxGeometry x="407" y="769" width="120" height="60" as="geometry" />
        </mxCell>
        <mxCell id="5vN8rXRsK1bDS0_Dt-l9-88" style="edgeStyle=orthogonalEdgeStyle;rounded=0;orthogonalLoop=1;jettySize=auto;html=1;exitX=0.5;exitY=1;exitDx=0;exitDy=0;" edge="1" parent="WIyWlLk6GJQsqaUBKTNV-1" source="5vN8rXRsK1bDS0_Dt-l9-14" target="5vN8rXRsK1bDS0_Dt-l9-14">
          <mxGeometry relative="1" as="geometry" />
        </mxCell>
        <mxCell id="5vN8rXRsK1bDS0_Dt-l9-91" value="&lt;b&gt;&lt;font style=&quot;font-size: 18px;&quot;&gt;广告投播模块&lt;/font&gt;&lt;/b&gt;" style="text;strokeColor=none;align=center;fillColor=none;html=1;verticalAlign=middle;whiteSpace=wrap;rounded=0;" vertex="1" parent="WIyWlLk6GJQsqaUBKTNV-1">
          <mxGeometry x="377" y="854" width="143" height="34" as="geometry" />
        </mxCell>
      </root>
    </mxGraphModel>
  </diagram>
</mxfile>
